<?xml version="1.0" standalone="no"?>
<!DOCTYPE svg PUBLIC "-//W3C//DTD SVG 20010904//EN"
 "http://www.w3.org/TR/2001/REC-SVG-20010904/DTD/svg10.dtd">
<svg version="1.0" xmlns="http://www.w3.org/2000/svg"
 width="500.000000pt" height="500.000000pt" viewBox="0 0 500.000000 500.000000"
 preserveAspectRatio="xMidYMid meet">
<metadata>
Created by potrace 1.14, written by Peter Selinger 2001-2017
</metadata>
<g transform="translate(0.000000,500.000000) scale(0.100000,-0.100000)"
fill="#000000" stroke="none">
<path d="M1680 4990 c-78 -24 -163 -62 -212 -94 -32 -20 -62 -36 -68 -36 -5 0
-10 -4 -10 -9 0 -5 -9 -11 -20 -14 -17 -4 -80 -117 -80 -144 0 -31 -124 -221
-195 -298 -44 -49 -89 -102 -100 -118 -49 -75 -64 -103 -65 -122 0 -11 -7 -33
-16 -50 -20 -37 -36 -293 -24 -375 5 -30 11 -97 13 -149 5 -88 4 -97 -19 -126
-13 -18 -24 -38 -24 -45 0 -6 -13 -29 -29 -49 -58 -73 -96 -196 -86 -276 7
-57 36 -142 65 -190 42 -69 34 -185 -16 -229 -60 -53 -141 -101 -217 -128 -44
-15 -84 -31 -91 -36 -13 -11 -130 -52 -149 -52 -13 -1 -77 -89 -77 -107 0 -16
99 -95 159 -126 85 -45 156 -67 261 -82 127 -19 186 -19 372 2 l156 17 34 -33
c18 -17 60 -47 93 -65 55 -31 69 -34 173 -39 118 -6 160 -21 217 -74 17 -16
89 -59 162 -98 20 -11 91 -65 117 -90 6 -6 27 -18 46 -27 61 -29 117 -75 128
-107 10 -28 8 -32 -32 -69 -24 -22 -53 -43 -65 -47 -11 -3 -21 -11 -21 -16 0
-5 -7 -9 -15 -9 -8 0 -15 -4 -15 -8 0 -4 -33 -23 -72 -42 -40 -19 -84 -42 -98
-52 -14 -9 -68 -31 -120 -49 -52 -18 -99 -36 -104 -41 -6 -4 -20 -8 -32 -8
-12 0 -41 -11 -66 -25 -81 -45 -172 -68 -270 -67 -58 1 -126 48 -274 190 -49
48 -133 127 -185 175 -129 120 -131 122 -158 151 -13 14 -29 26 -37 26 -8 0
-14 4 -14 9 0 19 -97 44 -203 51 -63 4 -127 14 -147 23 -39 17 -74 50 -63 60
3 4 -1 7 -9 7 -9 0 -18 6 -21 14 -5 12 -21 16 -125 33 l-32 5 0 -100 0 -99 51
-6 c29 -4 84 -23 128 -45 84 -42 81 -34 61 -142 -15 -84 -6 -182 25 -261 14
-33 28 -66 33 -73 5 -6 12 -23 15 -37 9 -37 98 -168 143 -211 37 -34 129 -88
152 -88 23 0 62 24 67 42 12 34 -6 58 -65 88 -83 42 -113 78 -183 220 l-61
125 -1 102 c0 99 1 102 31 140 53 66 103 60 195 -25 35 -33 105 -95 154 -139
50 -44 135 -125 190 -179 164 -162 247 -216 430 -279 44 -15 98 -37 120 -48
43 -22 266 -106 302 -114 16 -4 33 -31 67 -108 45 -100 46 -104 47 -211 0 -70
-4 -124 -14 -150 -29 -85 -191 -282 -262 -318 -29 -15 -26 -16 77 -16 l107 0
55 73 c49 63 109 136 142 171 15 16 44 127 49 188 5 71 -12 192 -35 242 -10
23 -20 52 -23 65 l-6 24 92 -7 c152 -10 428 -8 492 4 33 6 92 15 130 20 117
14 241 48 340 95 28 12 61 26 75 30 14 4 48 17 75 29 106 48 126 56 140 56 8
0 15 5 15 10 0 6 9 10 20 10 11 0 20 5 20 10 0 6 6 10 13 10 7 0 40 16 73 36
32 20 83 45 113 55 57 20 130 63 169 100 13 12 56 37 95 56 40 19 83 43 97 53
14 9 47 29 74 44 49 28 182 130 223 173 12 12 34 40 50 60 15 21 31 40 34 43
3 3 14 20 25 38 10 18 24 30 31 28 7 -3 10 1 6 10 -3 7 -1 14 4 14 5 0 17 15
28 33 10 17 42 59 72 93 29 34 53 66 53 71 0 5 8 17 17 26 10 8 32 42 48 74
17 32 33 60 36 63 3 3 9 19 13 35 7 30 45 115 56 125 8 7 40 93 40 108 0 7 8
31 19 55 10 23 26 62 36 87 9 25 21 55 26 68 5 13 9 36 9 52 0 17 5 30 10 30
6 0 10 8 10 18 0 9 11 34 25 54 14 20 25 44 25 53 0 9 5 13 10 10 6 -4 10 5
10 20 0 15 4 24 10 20 6 -3 10 1 10 9 0 9 9 33 20 53 19 36 20 57 20 393 0
335 -2 357 -21 400 -25 56 -62 96 -112 121 -36 19 -38 22 -31 52 4 18 10 50
13 72 l6 40 73 8 72 9 0 104 0 104 -59 0 c-54 0 -61 3 -80 29 -12 16 -21 36
-21 45 0 9 -5 26 -12 39 -6 12 -14 29 -18 37 -4 8 -19 21 -33 28 -15 7 -27 17
-27 23 0 5 -9 9 -20 9 -11 0 -23 8 -27 18 -7 19 -53 61 -67 62 -5 0 -17 7 -27
16 -10 9 -63 24 -121 34 -127 22 -145 29 -194 74 -21 20 -43 36 -48 36 -5 0
-26 17 -47 39 -21 21 -57 48 -81 60 -24 12 -56 30 -73 41 -16 11 -42 26 -57
35 -16 9 -28 20 -28 26 0 5 -19 18 -42 29 -24 10 -63 37 -87 59 -25 23 -61 45
-80 51 -20 5 -166 10 -331 10 l-294 0 89 -43 c50 -24 119 -52 155 -62 36 -9
90 -28 120 -42 30 -13 75 -31 100 -40 73 -25 297 -140 357 -183 31 -22 62 -40
69 -40 19 0 105 -93 96 -102 -5 -5 -44 -3 -88 3 -128 19 -326 17 -424 -4 -74
-16 -210 -55 -358 -103 -101 -33 -135 -13 -176 100 -31 86 -55 115 -126 155
-33 19 -203 26 -257 12 -54 -15 -213 -120 -246 -162 -38 -50 -66 -129 -84
-238 -17 -104 -40 -154 -81 -175 -15 -7 -76 -26 -137 -41 -138 -34 -196 -63
-262 -128 -77 -75 -87 -100 -118 -305 -20 -127 -33 -150 -117 -208 -78 -53
-140 -123 -159 -181 -13 -41 -8 -147 15 -325 20 -153 11 -217 -61 -413 -42
-114 -77 -140 -257 -187 -91 -23 -128 -28 -233 -28 -119 0 -130 2 -212 34 -47
19 -94 36 -104 38 -34 6 -15 23 56 50 117 45 154 68 231 142 81 79 105 122
113 201 5 50 -12 178 -27 200 -3 6 -12 30 -19 55 -7 25 -17 58 -22 74 -26 84
-2 174 66 251 67 77 87 168 65 300 -17 102 -14 311 5 390 29 114 80 208 168
304 84 91 107 130 133 226 15 54 25 69 99 141 92 90 117 101 295 128 100 15
143 29 280 94 47 22 121 47 165 57 44 10 107 26 140 35 l60 18 -365 0 c-201 0
-376 -3 -390 -8z m1205 -464 c24 -11 40 -26 51 -53 44 -106 82 -169 117 -197
33 -26 45 -30 105 -30 64 0 84 4 277 65 190 60 290 74 450 63 118 -7 253 -9
338 -4 17 1 89 -7 159 -17 107 -17 135 -25 184 -54 77 -46 112 -83 143 -149
36 -79 32 -148 -26 -423 -12 -58 61 -105 97 -62 16 19 30 19 55 -3 45 -37 57
-94 66 -317 l8 -210 -35 -110 c-20 -60 -57 -150 -84 -200 -48 -91 -126 -279
-153 -370 -19 -66 -76 -203 -96 -235 -9 -14 -30 -50 -45 -80 -32 -61 -184
-294 -213 -325 -11 -11 -37 -45 -60 -76 -63 -86 -153 -162 -209 -178 -27 -8
-78 -27 -114 -43 -64 -29 -230 -69 -341 -83 -53 -7 -283 12 -444 36 -274 41
-595 129 -638 174 -12 13 -69 48 -127 78 -166 84 -384 224 -548 350 -59 46
-134 101 -167 124 -33 23 -77 59 -98 80 l-37 39 28 70 c45 107 79 222 92 306
12 75 11 98 -11 263 -5 39 -12 104 -15 145 -5 68 -4 78 18 110 13 19 55 56 93
83 121 82 142 120 175 312 25 148 36 179 76 217 32 29 123 78 147 78 25 0 210
56 245 74 19 10 49 42 72 76 31 50 40 75 50 147 16 114 32 166 65 208 26 35
112 96 170 121 40 18 138 17 180 0z"/>
<path d="M3810 4215 c-8 -2 -60 -8 -115 -15 -299 -36 -488 -130 -407 -203 25
-23 46 -21 97 8 74 44 200 72 369 82 119 7 146 19 146 67 0 24 -23 56 -40 56
-5 0 -14 2 -22 4 -7 2 -20 2 -28 1z"/>
<path d="M3668 3954 c-3 -3 -44 -16 -90 -28 -191 -53 -274 -129 -222 -204 22
-32 61 -28 116 12 49 34 88 45 248 67 47 6 93 18 103 27 25 22 21 66 -9 101
-23 28 -31 31 -83 31 -32 0 -60 -3 -63 -6z"/>
<path d="M2920 3343 c-99 -18 -250 -91 -284 -136 -33 -43 -33 -72 -1 -93 22
-14 28 -14 44 -3 116 85 129 90 254 110 59 9 81 17 92 33 41 57 -16 106 -105
89z"/>
<path d="M2913 2970 c-41 -25 -53 -48 -53 -104 0 -87 101 -157 195 -136 51 12
74 43 75 101 0 60 -31 107 -90 137 -54 27 -85 28 -127 2z"/>
<path d="M3693 2758 c-18 -24 -23 -49 -13 -69 9 -15 3 -39 -25 -108 -19 -49
-35 -95 -35 -103 0 -8 -17 -59 -39 -114 -83 -213 -175 -378 -257 -460 -40 -41
-160 -126 -221 -158 -46 -23 -59 -51 -39 -82 23 -34 56 -39 104 -16 38 18 40
18 63 1 58 -43 187 -51 262 -15 57 28 130 98 196 189 55 77 164 287 211 406
24 63 89 288 98 344 6 30 16 45 46 65 46 32 59 60 43 92 -21 41 -39 45 -115
27 -84 -20 -134 -21 -187 -2 -49 18 -80 19 -92 3z m165 -147 c11 -7 11 -18 -2
-62 -9 -30 -22 -87 -31 -127 -18 -85 -108 -314 -167 -422 -72 -132 -163 -237
-224 -260 -31 -12 -91 -13 -98 -2 -3 5 22 35 56 67 106 102 202 268 307 529
118 293 123 301 159 277z"/>
<path d="M1870 2572 c-57 -28 -107 -85 -124 -143 -28 -95 -17 -163 30 -175 39
-10 62 19 72 94 10 71 13 76 79 111 55 30 77 64 61 95 -22 41 -60 47 -118 18z"/>
<path d="M2482 2414 c-13 -9 -22 -25 -22 -42 0 -34 8 -45 46 -68 77 -47 193
-180 308 -352 86 -128 102 -136 179 -98 67 32 181 113 230 160 30 30 37 45 37
75 0 46 -14 61 -57 61 -26 0 -43 -9 -74 -40 -22 -22 -44 -40 -47 -40 -4 0 -25
-17 -47 -37 -60 -54 -88 -70 -93 -55 -13 39 -173 251 -261 345 -54 57 -126
107 -155 107 -12 0 -32 -7 -44 -16z"/>
<path d="M2133 2295 c-46 -20 -67 -57 -60 -107 10 -75 67 -128 146 -136 46 -4
53 -2 82 27 29 29 31 36 27 80 -6 61 -39 108 -92 132 -49 22 -61 23 -103 4z"/>
<path d="M4114 4942 c-25 -11 -34 -20 -34 -38 0 -22 4 -24 44 -24 24 0 72 -7
107 -16 43 -11 79 -14 118 -9 51 6 91 26 91 45 0 6 -51 32 -70 36 -3 0 -16 3
-30 7 -52 13 -191 12 -226 -1z"/>
<path d="M0 1288 l0 -126 75 -100 c68 -89 167 -188 235 -235 32 -22 63 -21 85
3 24 27 13 65 -34 109 -21 20 -59 56 -85 80 -65 61 -174 209 -230 311 l-46 85
0 -127z"/>
<path d="M0 854 l0 -90 108 -101 c246 -232 267 -246 321 -219 24 13 31 23 31
45 0 24 -15 41 -87 102 -49 40 -152 136 -230 213 l-143 140 0 -90z"/>
<path d="M0 190 l0 -190 533 1 c292 1 516 5 497 9 -61 14 -154 40 -195 55 -44
16 -116 36 -240 66 -44 11 -93 24 -110 29 -16 6 -68 22 -115 37 -47 14 -99 34
-117 44 -17 10 -48 21 -68 25 -21 4 -64 29 -105 60 -38 30 -71 54 -74 54 -3 0
-6 -85 -6 -190z"/>
<path d="M4945 324 c-56 -38 -252 -137 -360 -180 -38 -16 -71 -32 -73 -36 -2
-5 -11 -8 -20 -8 -20 0 -106 -32 -177 -65 -27 -13 -57 -25 -65 -28 -8 -3 69
-6 172 -6 164 -1 191 1 220 17 27 15 61 28 98 37 3 0 15 6 27 13 24 13 33 1
33 -44 0 -23 2 -24 76 -24 l77 0 -6 83 -6 82 30 17 c28 17 29 19 29 98 0 44
-1 80 -2 79 -2 -1 -25 -16 -53 -35z"/>
<path d="M1015 319 c-24 -38 53 -112 192 -183 118 -60 173 -62 173 -5 0 26 -5
30 -57 44 -107 30 -146 50 -203 103 -55 50 -91 64 -105 41z"/>
</g>
</svg>
